PathFileType	4	(X/Y/Z)	E:/Marcel_BSc/Hannes_22_01_2025/22-01-2025/static_01_hjc.trc	
DataRate	CameraRate	NumFrames	NumMarkers	Units	OrigDataRate	OrigDataStartFrame	OrigNumFrames	
200.00	200.00	4	72	mm	200.00	249	497	
Frame#	Time	FHD			LBHD			RBHD			RBAR			LBAR			RASI			RSACR			LSACR			LASI			USACR			C7			CLAV			T10			RSHO			LSHO			LTHI1			LTHI3			LTHI2			LLFC			LMFC			LTIB1			LTIB2			LTIB3			LMMAL			LLMAL			LHEE			LMT1			LMT5			LMT3			RTHI1			RTHI2			RTHI3			RLFC			RMFC			RTIB1			RTIB3			RTIB2			RLMAL			RMMAL			RHEE			RMT5			RMT1			RMT3			LMEP			LLEP			LDUPA			LMUPA			LUUPA			LUL			LRAD			LRFIN			RUL			RRAD			RUFIN			RMEP			RLEP			RMUPA			RDUPA			RUUPA			*59			*60			*61			*62			*63			*64			*65			RAJC			LAJC			LKJC			RKJC			LHJC			RHJC			
		X1	Y1	Z1	X2	Y2	Z2	X3	Y3	Z3	X4	Y4	Z4	X5	Y5	Z5	X6	Y6	Z6	X7	Y7	Z7	X8	Y8	Z8	X9	Y9	Z9	X10	Y10	Z10	X11	Y11	Z11	X12	Y12	Z12	X13	Y13	Z13	X14	Y14	Z14	X15	Y15	Z15	X16	Y16	Z16	X17	Y17	Z17	X18	Y18	Z18	X19	Y19	Z19	X20	Y20	Z20	X21	Y21	Z21	X22	Y22	Z22	X23	Y23	Z23	X24	Y24	Z24	X25	Y25	Z25	X26	Y26	Z26	X27	Y27	Z27	X28	Y28	Z28	X29	Y29	Z29	X30	Y30	Z30	X31	Y31	Z31	X32	Y32	Z32	X33	Y33	Z33	X34	Y34	Z34	X35	Y35	Z35	X36	Y36	Z36	X37	Y37	Z37	X38	Y38	Z38	X39	Y39	Z39	X40	Y40	Z40	X41	Y41	Z41	X42	Y42	Z42	X43	Y43	Z43	X44	Y44	Z44	X45	Y45	Z45	X46	Y46	Z46	X47	Y47	Z47	X48	Y48	Z48	X49	Y49	Z49	X50	Y50	Z50	X51	Y51	Z51	X52	Y52	Z52	X53	Y53	Z53	X54	Y54	Z54	X55	Y55	Z55	X56	Y56	Z56	X57	Y57	Z57	X58	Y58	Z58	X59	Y59	Z59	X60	Y60	Z60	X61	Y61	Z61	X62	Y62	Z62	X63	Y63	Z63	X64	Y64	Z64	X65	Y65	Z65	X66	Y66	Z66	X67	Y67	Z67	X68	Y68	Z68	X69	Y69	Z69	X70	Y70	Z70	X71	Y71	Z71	X72	Y72	Z72	

249	1.240	66.62922	1220.90405	1709.71106	150.96532	1119.95862	1680.48291	163.63089	1314.19348	1675.66504	-530.17682	2111.53687	25.85725	-499.42862	-112.27530	36.27313	110.08713	1329.63599	988.40350	302.96463	1256.10229	1050.10962	303.60757	1148.67297	1055.24976	116.79168	1060.74097	995.15955	304.09747	1201.62952	1074.42395	294.91257	1206.60400	1492.87878	124.57269	1206.58630	1450.38916	294.04297	1201.91431	1170.63159	274.49826	1366.15442	1484.49622	273.06439	1046.12341	1491.35547	212.89047	982.92236	792.20813	234.04721	982.34314	728.96509	184.01434	973.43085	731.95264	223.41817	998.66486	504.17386	206.58961	1106.54700	464.95270	269.30804	961.72461	267.85925	319.70731	966.70099	278.00430	306.08203	968.40759	214.09253	277.46225	1054.37634	86.19054	309.67401	965.95258	80.10347	354.49402	1015.23547	22.01637	142.83844	996.74658	40.00940	185.67050	915.64264	26.61189	149.06511	948.56854	30.10271	222.50357	1410.26172	782.10181	190.66154	1417.33557	724.33148	240.05309	1408.80371	717.90869	218.11125	1384.05481	494.78506	196.03354	1277.45300	477.57645	244.94923	1414.42639	277.35312	268.64148	1414.00476	215.69960	294.99887	1422.77283	274.36121	295.12454	1409.92822	79.96248	257.49548	1322.69849	83.35201	343.88214	1366.35583	30.18814	184.12932	1460.95435	27.38740	124.55762	1389.70544	36.00837	135.76010	1438.14392	28.37265	216.94792	769.27216	1356.83594	280.19223	761.86688	1447.32654	288.85269	828.82971	1440.73145	254.45375	887.26721	1482.67773	291.68280	890.00641	1449.49182	200.50165	519.40234	1479.89038	158.36864	533.75507	1500.85181	116.28381	433.17657	1491.52393	216.97447	1901.72095	1469.07483	173.58052	1883.20447	1493.92310	157.09486	1995.94812	1489.44666	230.56201	1638.13062	1352.83215	296.01242	1653.23621	1440.74194	310.54895	1547.91602	1426.54749	290.42847	1585.65869	1451.69202	290.95355	1508.97778	1471.94482	-538.75153	1681.07776	41.98125	-579.42126	1998.96033	4.68163																276.31001	1366.31335	81.65724	293.56813	1010.16446	83.14700	215.00389	1052.60593	484.56328	207.07240	1330.75391	486.18076	210.19963	1104.70697	1025.20465	206.52588	1292.86914	1019.25656 
250	1.245	66.57169	1220.88965	1709.72327	150.95966	1119.96375	1680.47559	163.57881	1314.18103	1675.67480	-530.22443	2111.36157	25.82665	-499.43231	-112.27243	36.26778	110.05062	1329.64771	988.37213	302.95645	1256.10620	1050.10266	303.59531	1148.67041	1055.24231	116.79604	1060.73547	995.15814	304.09100	1201.63062	1074.42517	294.90845	1206.61267	1492.88647	124.56354	1206.59509	1450.38306	294.05231	1201.90747	1170.63257	274.50656	1366.16052	1484.48376	273.06577	1046.12439	1491.36035	212.84389	982.84308	791.95612	234.05957	982.33246	728.94580	184.02922	973.43195	731.94763	223.43355	998.65875	504.18527	206.58624	1106.53625	464.94818	269.31702	961.71234	267.86444	319.71060	966.71680	277.99728	306.08475	968.41541	214.07695	277.46490	1054.37866	86.18650	309.67032	965.95337	80.12055	354.49753	1015.23694	21.99562	142.84090	996.74445	40.00976	185.67294	915.64697	26.61503	149.06285	948.56897	30.10587	222.49127	1410.25464	782.10010	190.64844	1417.34021	724.33966	239.94099	1408.66528	718.19708	218.09897	1384.04773	494.78589	196.00574	1277.43542	477.56393	244.85187	1414.22839	277.40289	268.64355	1414.00281	215.69505	294.98862	1422.78784	274.35486	295.12100	1409.92395	79.95944	257.49854	1322.69971	83.35033	343.87836	1366.34729	30.17360	184.12054	1460.96289	27.40914	124.55186	1389.70422	36.01078	135.75726	1438.14990	28.38105	216.95900	769.28723	1356.84485	280.17770	761.87677	1447.34033	288.81744	828.83795	1440.75012	254.43790	887.27679	1482.67505	291.67749	890.00366	1449.51428	200.50262	519.40515	1479.91284	158.35030	533.76678	1500.86206	116.25999	433.18130	1491.51953	216.91898	1901.74512	1469.07788	173.52824	1883.20068	1493.89636	157.01953	1995.93884	1489.43469	230.56296	1638.13440	1352.81396	295.98102	1653.25317	1440.74268	310.53842	1547.93445	1426.56348	290.42215	1585.68188	1451.67737	290.92270	1508.99475	1471.95618							-535.33392	1939.59839	33.02210													276.30977	1366.31183	81.65488	293.56761	1010.16602	83.15353	215.00990	1052.59750	484.56673	207.05235	1330.74158	486.17491	210.19567	1104.70294	1025.20023	206.50354	1292.87695	1019.23740 
251	1.250	66.56407	1220.89270	1709.70715	150.95735	1119.98328	1680.45959	163.55904	1314.19409	1675.65417	-530.20831	2111.53735	25.80185	-499.42743	-112.26551	36.26720	110.03352	1329.64197	988.36798	302.93985	1256.10486	1050.11267	303.59988	1148.67151	1055.24634	116.80415	1060.74365	995.14117	304.10028	1201.62769	1074.42236	295.10440	1206.66223	1493.01794	124.56823	1206.61487	1450.36353	294.05710	1201.89233	1170.62671	274.50058	1366.17212	1484.47070	273.04309	1046.14453	1491.35754	212.84680	982.86377	791.94940	234.06837	982.34631	728.94128	184.02988	973.42645	731.93048	223.40454	998.64557	504.19339	206.57915	1106.53479	464.94968	269.34299	961.70612	267.86362	319.71167	966.71704	277.98694	306.10406	968.40387	214.08351	277.46320	1054.38062	86.18763	309.65872	965.93872	80.09999	354.49628	1015.23090	21.99288	142.83675	996.74237	40.00486	185.67670	915.64063	26.60288	149.06532	948.56403	30.10734	222.48599	1410.25769	782.11298	190.63757	1417.34534	724.34357	239.93707	1408.67969	718.20947	218.09550	1384.04370	494.77548	195.99821	1277.44165	477.57501	244.90790	1414.35803	277.38501	268.63318	1414.00574	215.69888	295.00290	1422.77075	274.35544	295.12616	1409.91626	79.97633	257.50241	1322.69971	83.34481	343.85318	1366.38086	30.16898	184.12767	1460.95837	27.40061	124.55138	1389.69971	36.02092	135.75705	1438.15210	28.37164	216.96745	769.29321	1356.85645	280.17105	761.88989	1447.35339	288.81546	828.83911	1440.76245	254.42113	887.28497	1482.68750	291.68842	890.00079	1449.53406	200.49190	519.41760	1479.92224	158.33258	533.77185	1500.87512	116.25050	433.18756	1491.50903	216.86192	1901.74390	1469.06372	173.47302	1883.19434	1493.86389	156.93565	1995.91443	1489.43677	230.57109	1638.11035	1352.81335	295.95410	1653.26660	1440.74500	310.51373	1547.93970	1426.57471	290.39212	1585.68640	1451.68481	290.88663	1508.99084	1471.96399	-534.22345	1926.53064	32.94818	-538.71002	1680.99377	41.98808				-507.45163	-22.62335	40.80564										276.31429	1366.30798	81.66057	293.56096	1010.15967	83.14381	214.99184	1052.59018	484.57153	207.04686	1330.74268	486.17525	210.20201	1104.70758	1025.19376	206.48669	1292.87341	1019.24033 
252	1.255	66.57332	1220.91138	1709.66650	150.93927	1119.98669	1680.46057	163.54990	1314.20544	1675.63965	-530.16132	2111.54492	25.83250	-499.42630	-112.26885	36.26711	110.02464	1329.63928	988.37396	302.95682	1256.10864	1050.09094	303.60135	1148.66992	1055.23792	116.80891	1060.73828	995.12909	304.08969	1201.62830	1074.42236	295.10846	1206.69043	1493.01807	124.58656	1206.63159	1450.33167	294.05936	1201.88721	1170.61475	274.48819	1366.17957	1484.46863	273.03918	1046.14502	1491.35510	212.89803	982.92694	792.20575	234.06378	982.32349	728.94208	184.02721	973.43103	731.92542	223.40248	998.64600	504.18494	206.56432	1106.53418	464.94431	269.32306	961.74512	267.81564	319.69336	966.71460	277.99274	306.09854	968.40784	214.07898	277.45703	1054.37854	86.19041	309.67160	965.95422	80.09898	354.48422	1015.22162	22.00220	142.83356	996.74634	40.00789	185.67717	915.64362	26.59257	149.06592	948.57153	30.08419	222.47339	1410.26147	782.10931	190.63261	1417.34338	724.34937	239.92593	1408.66394	718.21106	218.07906	1384.03601	494.77826	195.98634	1277.44861	477.57285	244.88240	1414.26758	277.38995	268.62784	1413.99719	215.71008	294.96719	1422.78528	274.36807	295.11292	1409.91162	79.97466	257.48105	1322.69165	83.34039	343.85101	1366.37219	30.17246	184.12955	1460.95264	27.40304	124.55172	1389.70154	36.01518	135.75613	1438.14282	28.36465	216.95335	769.29987	1356.85535	280.15591	761.88965	1447.36145	288.80853	828.84003	1440.79028	254.40388	887.30023	1482.68518	291.66385	890.01355	1449.53870	200.48016	519.42590	1479.93799	158.32707	533.78888	1500.88306	116.23742	433.19260	1491.50586	216.79993	1901.75000	1469.05713	173.39914	1883.18689	1493.83691	156.87570	1995.90125	1489.41919	230.48303	1638.06836	1352.82861	295.90622	1653.24829	1440.74451	310.49170	1547.95166	1426.58569	290.36261	1585.66687	1451.70410	290.86594	1508.99109	1471.95190							-532.52448	1931.52368	33.50672				-576.70166	2002.26257	6.58809							276.29698	1366.30164	81.65752	293.56432	1010.16638	83.14470	214.98340	1052.59009	484.56462	207.03270	1330.74231	486.17555	210.20513	1104.70410	1025.18350	206.49073	1292.87396	1019.23245 
